<svg height="512pt" viewBox="0 0 512 512" width="512pt" xmlns="http://www.w3.org/2000/svg"><path d="m338.5625 204.753906 31.199219-31.199218c20.984375 12.859374 35.019531 36.003906 35.019531 62.371093v40.148438c0 40.308593-32.792969 73.105469-73.101562 73.105469h-35.734376c-11.371093 0-20.589843-9.21875-20.589843-20.589844v-60.632813l41.175781-41.175781v81.222656h15.148438c17.601562 0 31.925781-14.324218 31.925781-31.929687v-40.152344c0-15.238281-10.738281-28.011719-25.042969-31.167969zm-63.207031-21.34375v21.917969l42.507812-42.507813h-21.917969c-11.371093 0-20.589843 9.21875-20.589843 20.589844zm-74.492188 159.042969c3.765625 4.121094 9.167969 6.726563 15.191407 6.726563 11.371093 0 20.585937-9.21875 20.585937-20.589844v-21.914063zm-52.878906-9.75-16.0625 16.0625c-1.332031.269531-2.707031.414063-4.113281.414063-11.371094 0-20.589844-9.21875-20.589844-20.589844v-101.058594c0-35.679688 29.03125-64.710938 64.710938-64.710938 35.683593 0 64.710937 29.03125 64.710937 64.710938v16.511719l-41.175781 41.175781v-8.628906h-47.070313v52c0 1.410156-.140625 2.785156-.410156 4.113281zm.410156-97.292969h47.074219v-7.878906c0-12.976562-10.558594-23.535156-23.535156-23.535156-12.980469 0-23.535156 10.558594-23.535156 23.535156v7.878906zm0 0" fill="#40c1fa"/><g fill="#0691ce"><path d="m200.863281 342.453125c3.765625 4.121094 9.167969 6.726563 15.191407 6.726563 11.371093 0 20.585937-9.21875 20.585937-20.589844v-21.914063zm0 0"/><path d="m369.761719 173.554688-11.726563 11.726562c4.324219 9.324219 6.746094 19.703125 6.746094 30.644531v40.148438c0 4.429687-.417969 8.761719-1.175781 12.972656v7.027344c0 12.246093-6.933594 22.898437-17.078125 28.253906-13.40625 15.21875-33.019532 24.851563-54.847656 24.851563h-16.292969c.3125 11.09375 9.386719 20 20.558593 20h35.734376c40.308593 0 73.101562-32.792969 73.101562-73.101563v-40.152344c0-26.367187-14.035156-49.511719-35.019531-62.371093zm0 0"/><path d="m179.023438 163.21875c10.910156 11.589844 17.617187 27.179688 17.617187 44.3125v76.511719l40-40v-16.511719c0-33.285156-25.261719-60.769531-57.617187-64.3125zm0 0"/></g><path d="m437.019531 74.980469c-48.351562-48.351563-112.640625-74.980469-181.019531-74.980469s-132.667969 26.628906-181.019531 74.980469c-48.351563 48.351562-74.980469 112.640625-74.980469 181.019531s26.628906 132.667969 74.980469 181.019531c48.351562 48.351563 112.640625 74.980469 181.019531 74.980469s132.667969-26.628906 181.019531-74.980469c48.351563-48.351562 74.980469-112.640625 74.980469-181.019531s-26.628906-132.667969-74.980469-181.019531zm-41.566406 320.472656c-66.542969 66.542969-171.445313 76.308594-248.714844 24.773437-4.046875-2.699218-4.601562-8.441406-1.164062-11.878906l262.769531-262.773437c3.441406-3.4375 9.183594-2.882813 11.882812 1.164062 51.535157 77.269531 41.765626 182.167969-24.773437 248.714844zm-303.6875-30.175781c-21.621094-32.296875-32.988281-69.84375-32.980469-109.320313.023438-109.320312 87.898438-197.171875 197.214844-197.171875 39.460938 0 76.992188 11.363282 109.277344 32.980469 4.042968 2.707031 4.597656 8.4375 1.160156 11.878906l-262.792969 262.789063c-3.441406 3.441406-9.171875 2.886718-11.878906-1.15625zm0 0" fill="#e04955"/><path d="m437.019531 74.980469c-25.261719-25.261719-54.878906-44.578125-87.152343-57.28125 16.921874 10.417969 32.75 22.875 47.152343 37.28125 48.351563 48.351562 74.980469 112.640625 74.980469 181.019531s-26.628906 132.667969-74.980469 181.019531c-48.351562 48.351563-112.640625 74.980469-181.019531 74.980469-32.65625 0-64.371094-6.085938-93.867188-17.699219 39.875 24.554688 85.859376 37.699219 133.867188 37.699219 68.378906 0 132.667969-26.628906 181.019531-74.980469 48.351563-48.351562 74.980469-112.640625 74.980469-181.019531s-26.628906-132.667969-74.980469-181.019531zm0 0" fill="#c62430"/></svg>