<svg id="Capa_1" enable-background="new 0 0 512 512" height="512" viewBox="0 0 512 512" width="512" xmlns="http://www.w3.org/2000/svg"><circle cx="275.051" cy="272.385" fill="#7ad0df" r="217.104"/><path d="m319.228 484.987c-14.267 2.944-29.044 4.494-44.174 4.494-119.904 0-217.107-97.192-217.107-217.096s97.203-217.108 217.107-217.108c15.131 0 29.907 1.549 44.174 4.505-98.73 20.389-172.944 107.829-172.944 212.603s74.214 192.203 172.944 212.602z" fill="#6bbcd5"/><path d="m492.162 272.38c0 75.398-38.441 141.831-96.793 180.747l-.011-.011c-42.846-5.191-31.136-96.495-31.136-134.747s58.519-43.355 67.362-64.329c8.833-20.986-69.576-69.565-35.341-121.587l28.977-16.869c41.252 39.515 66.942 95.156 66.942 156.796z" fill="#80e29d"/><path d="m212.706 480.4h-.011c-89.51-26.797-154.748-109.788-154.748-208.02 0-79.217 42.425-148.516 105.792-186.437l.022.011c41.451 32.264 94.458 44.407 77.889 131.637-16.558 87.241-92.753 40.865-92.753 40.865s-14.787 61.707 48.59 89.433c70.672 30.925 67.982 108.216 15.219 132.511z" fill="#80e29d"/><path d="m146.291 272.389c0-60.226 24.527-114.72 64.132-154.049-14.393-11.254-31.314-20.441-46.654-32.382l-.022-.011c-63.367 37.92-105.792 107.22-105.792 186.437 0 98.232 65.237 181.223 154.748 208.02h.011c13.485-6.209 23.69-15.885 30.245-27.359-58.283-38.927-96.668-105.305-96.668-180.656z" fill="#6ec186"/><path d="m340.19 22.512h143.701c15.524 0 28.109 12.585 28.109 28.109v53.724c0 15.524-12.585 28.109-28.109 28.109h-133.069l-38.742 28.271v-110.104c.001-15.524 12.586-28.109 28.11-28.109z" fill="#736e6e"/><path d="m484.981 68.495h-145.881c-4.267 0-7.726-3.459-7.726-7.726s3.459-7.726 7.726-7.726h145.882c4.267 0 7.726 3.459 7.726 7.726s-3.459 7.726-7.727 7.726z" fill="#f6e4c1"/><path d="m484.981 102.234h-85.639c-4.267 0-7.726-3.459-7.726-7.726s3.459-7.726 7.726-7.726h85.639c4.267 0 7.726 3.459 7.726 7.726s-3.458 7.726-7.726 7.726z" fill="#f6e4c1"/><path d="m333.276 318.373h143.701c15.524 0 28.109 12.585 28.109 28.109v53.724c0 15.524-12.585 28.109-28.109 28.109h-133.069l-38.742 28.271v-110.103c.001-15.525 12.586-28.11 28.11-28.11z" fill="#da4a54"/><path d="m478.067 364.357h-145.881c-4.267 0-7.726-3.459-7.726-7.726s3.459-7.726 7.726-7.726h145.882c4.267 0 7.726 3.459 7.726 7.726 0 4.266-3.459 7.726-7.727 7.726z" fill="#595454"/><path d="m478.067 398.096h-85.639c-4.267 0-7.726-3.459-7.726-7.726s3.459-7.726 7.726-7.726h85.639c4.267 0 7.726 3.459 7.726 7.726.001 4.267-3.458 7.726-7.726 7.726z" fill="#595454"/><path d="m171.81 166.597h-143.701c-15.524 0-28.109 12.585-28.109 28.109v53.724c0 15.524 12.585 28.109 28.109 28.109h133.068l38.742 28.271v-110.104c0-15.524-12.585-28.109-28.109-28.109z" fill="#f6e4c1"/><g fill="#595454"><path d="m172.9 212.58h-145.881c-4.267 0-7.726-3.459-7.726-7.726s3.459-7.726 7.726-7.726h145.881c4.267 0 7.726 3.459 7.726 7.726.001 4.267-3.458 7.726-7.726 7.726z"/><path d="m112.658 246.319h-85.639c-4.267 0-7.726-3.459-7.726-7.726s3.459-7.726 7.726-7.726h85.639c4.267 0 7.726 3.459 7.726 7.726s-3.459 7.726-7.726 7.726z"/></g></svg>