<svg id="Capa_1" enable-background="new 0 0 512 512" height="512" viewBox="0 0 512 512" width="512" xmlns="http://www.w3.org/2000/svg"><path d="m448.11 93.347h-384.218c-14.224 0-25.755 11.531-25.755 25.755v338.87h435.727v-338.87c.001-14.225-11.53-25.755-25.754-25.755z" fill="#736e6e"/><path d="m83.332 93.347c-14.227 0-25.755 11.528-25.755 25.755v338.868h-19.44v-338.869c0-14.227 11.528-25.755 25.755-25.755h19.44z" fill="#595454"/><path d="m38.138 419.273h435.727v38.917h-435.727z" fill="#595454"/><path d="m481.742 437.342h-451.482c-16.711 0-30.258 13.547-30.258 30.258 0 16.711 13.547 30.258 30.258 30.258h451.482c16.711 0 30.258-13.547 30.258-30.258 0-16.712-13.547-30.258-30.258-30.258z" fill="#736e6e"/><path d="m508.037 482.57c-5.214 9.132-15.036 15.287-26.3 15.287h-451.477c-8.359 0-15.924-3.385-21.4-8.861-5.475-5.475-8.86-13.04-8.86-21.399 0-16.708 13.542-30.25 30.26-30.25h12.612c-2.529 4.409-3.96 9.519-3.96 14.963 0 8.359 3.385 15.924 8.861 21.399 5.475 5.475 13.04 8.861 21.399 8.861z" fill="#595454"/><path d="m312.264 467.599h-112.525c-16.711 0-30.258-13.547-30.258-30.258h173.04c0 16.711-13.547 30.258-30.257 30.258z" fill="#595454"/><path d="m432.655 154.513v221.17c0 11.023-8.932 19.965-19.955 19.965h-313.401c-11.023 0-19.955-8.942-19.955-19.965v-221.17c0-11.023 8.932-19.955 19.955-19.955h313.402c11.023 0 19.954 8.932 19.954 19.955z" fill="#f6e4c1"/><path d="m412.701 403.374h-313.402c-15.264 0-27.681-12.422-27.681-27.691v-221.17c0-15.263 12.418-27.681 27.681-27.681h313.402c15.264 0 27.681 12.418 27.681 27.681v221.17c0 15.268-12.417 27.691-27.681 27.691zm-313.402-261.089c-6.742 0-12.228 5.485-12.228 12.228v221.17c0 6.748 5.486 12.238 12.228 12.238h313.402c6.742 0 12.228-5.49 12.228-12.238v-221.17c0-6.743-5.486-12.228-12.228-12.228z" fill="#595454"/><path d="m292.324 14.143h-114.25c-18.165 0-32.89 14.725-32.89 32.89v62.86c0 18.165 14.725 32.89 32.89 32.89h101.809l45.33 33.079v-128.829c0-18.165-14.725-32.89-32.889-32.89z" fill="#da4a54"/><path d="m293.6 66.633h-116.802c-4.268 0-7.726-3.459-7.726-7.726s3.459-7.726 7.726-7.726h116.802c4.268 0 7.726 3.459 7.726 7.726s-3.459 7.726-7.726 7.726z" fill="#595454"/><path d="m223.112 99.635h-46.314c-4.268 0-7.726-3.459-7.726-7.726s3.459-7.726 7.726-7.726h46.314c4.268 0 7.726 3.459 7.726 7.726 0 4.266-3.459 7.726-7.726 7.726z" fill="#595454"/><path d="m380.313 123.147h98.797c18.165 0 32.89 14.725 32.89 32.89v62.86c0 18.165-14.725 32.89-32.89 32.89h-86.357l-45.33 33.079v-128.829c0-18.165 14.725-32.89 32.89-32.89z" fill="#7ad0df"/><path d="m480.386 175.637h-101.349c-4.268 0-7.726-3.459-7.726-7.726s3.459-7.726 7.726-7.726h101.349c4.268 0 7.726 3.459 7.726 7.726s-3.458 7.726-7.726 7.726z" fill="#595454"/><path d="m480.386 208.638h-46.314c-4.268 0-7.726-3.459-7.726-7.726s3.459-7.726 7.726-7.726h46.314c4.268 0 7.726 3.459 7.726 7.726s-3.458 7.726-7.726 7.726z" fill="#595454"/><path d="m263.832 213.473h114.25c18.165 0 32.89 14.725 32.89 32.89v62.86c0 18.165-14.725 32.89-32.89 32.89h-101.809l-45.33 33.079v-128.829c-.001-18.165 14.725-32.89 32.889-32.89z" fill="#80e29d"/><path d="m379.358 265.963h-116.802c-4.268 0-7.726-3.459-7.726-7.726s3.459-7.726 7.726-7.726h116.802c4.268 0 7.726 3.459 7.726 7.726.001 4.267-3.458 7.726-7.726 7.726z" fill="#595454"/><path d="m308.87 298.965h-46.314c-4.268 0-7.726-3.459-7.726-7.726s3.459-7.726 7.726-7.726h46.314c4.268 0 7.726 3.459 7.726 7.726.001 4.266-3.458 7.726-7.726 7.726z" fill="#595454"/><path d="m154.568 71.132h-114.25c-18.165 0-32.89 14.725-32.89 32.89v62.86c0 18.165 14.725 32.89 32.89 32.89h101.809l45.33 33.079v-128.829c.001-18.164-14.725-32.89-32.889-32.89z" fill="#f6e738"/><path d="m155.844 123.622h-116.802c-4.268 0-7.726-3.459-7.726-7.726s3.459-7.726 7.726-7.726h116.802c4.268 0 7.726 3.459 7.726 7.726s-3.458 7.726-7.726 7.726z" fill="#595454"/><path d="m85.356 156.624h-46.314c-4.268 0-7.726-3.459-7.726-7.726s3.459-7.726 7.726-7.726h46.314c4.268 0 7.726 3.459 7.726 7.726s-3.458 7.726-7.726 7.726z" fill="#595454"/><path d="m147.14 233.928h-114.25c-18.165 0-32.89 14.725-32.89 32.89v62.86c0 18.165 14.725 32.89 32.89 32.89h101.809l45.33 33.079v-128.829c.001-18.164-14.725-32.89-32.889-32.89z" fill="#da4a54"/><g fill="#595454"><path d="m148.415 286.418h-116.801c-4.268 0-7.726-3.459-7.726-7.726s3.459-7.726 7.726-7.726h116.802c4.268 0 7.726 3.459 7.726 7.726s-3.459 7.726-7.727 7.726z"/><path d="m77.928 319.42h-46.314c-4.268 0-7.726-3.459-7.726-7.726s3.459-7.726 7.726-7.726h46.314c4.268 0 7.726 3.459 7.726 7.726s-3.459 7.726-7.726 7.726z"/></g></svg>