<svg id="Capa_1" enable-background="new 0 0 494.178 494.178" height="512" viewBox="0 0 494.178 494.178" width="512" xmlns="http://www.w3.org/2000/svg"><path d="m2.565 362.697 40.533-23.402v-48.843c0-11.848 9.605-21.452 21.452-21.452h364.376c11.848 0 21.452 9.605 21.452 21.452v153.375c0 11.848-9.604 21.452-21.452 21.452h-364.375c-11.848 0-21.452-9.604-21.452-21.452v-48.843l-40.534-23.401c-3.42-1.975-3.42-6.911 0-8.886z" fill="#00f2a6"/><path d="m428.927 269h-30c11.848 0 21.452 9.605 21.452 21.452v153.375c0 11.848-9.605 21.452-21.452 21.452h30c11.848 0 21.452-9.605 21.452-21.452v-153.375c.001-11.847-9.604-21.452-21.452-21.452z" fill="#05e39c"/><path d="m187.046 269h-122.495c-11.848 0-21.452 9.605-21.452 21.452v48.843l-40.534 23.402c-3.42 1.975-3.42 6.911 0 8.886l40.533 23.402v48.843c0 11.848 9.605 21.452 21.452 21.452h122.495v-196.28z" fill="#07b27b"/><path d="m491.613 122.595-40.533-23.402v-48.843c0-11.848-9.604-21.452-21.452-21.452h-364.377c-11.848 0-21.452 9.605-21.452 21.452v153.375c0 11.848 9.605 21.452 21.452 21.452h364.376c11.848 0 21.452-9.605 21.452-21.452v-48.843l40.533-23.402c3.421-1.974 3.421-6.91.001-8.885z" fill="#fee45a"/><path d="m491.613 122.595-40.533-23.402v-48.843c0-11.848-9.605-21.452-21.453-21.452h-121.547v196.28h121.547c11.848 0 21.453-9.605 21.453-21.452v-48.843l40.533-23.402c3.42-1.975 3.42-6.911 0-8.886z" fill="#fac600"/><g fill="#e8b800"><path d="m491.613 122.595-40.533-23.402v-48.843c0-11.848-9.605-21.452-21.452-21.452h-30c11.848 0 21.453 9.605 21.453 21.452v39.112c0 6.021 3.212 11.585 8.427 14.596l6.825 3.941c14.656 8.462 14.656 29.616 0 38.078l-6.825 3.941c-5.215 3.011-8.427 8.575-8.427 14.596v39.112c0 11.848-9.605 21.452-21.453 21.452h30c11.848 0 21.453-9.605 21.453-21.452v-48.843l40.533-23.402c3.419-1.975 3.419-6.911-.001-8.886z"/><path d="m150.259 82.172h-42.082c-4.142 0-7.5-3.358-7.5-7.5s3.358-7.5 7.5-7.5h42.082c4.142 0 7.5 3.358 7.5 7.5s-3.358 7.5-7.5 7.5z"/><path d="m232.393 188.9h-42.082c-4.142 0-7.5-3.358-7.5-7.5s3.358-7.5 7.5-7.5h42.082c4.142 0 7.5 3.358 7.5 7.5s-3.358 7.5-7.5 7.5z"/><path d="m233.893 117.748h-125.716c-4.142 0-7.5-3.358-7.5-7.5s3.358-7.5 7.5-7.5h125.716c4.142 0 7.5 3.358 7.5 7.5s-3.358 7.5-7.5 7.5z"/><path d="m233.893 153.324h-125.716c-4.142 0-7.5-3.358-7.5-7.5s3.358-7.5 7.5-7.5h125.716c4.142 0 7.5 3.358 7.5 7.5s-3.358 7.5-7.5 7.5z"/></g><path d="m304.001 322.274h-42.082c-4.142 0-7.5-3.358-7.5-7.5s3.358-7.5 7.5-7.5h42.082c4.142 0 7.5 3.358 7.5 7.5s-3.358 7.5-7.5 7.5z" fill="#07b27b"/><path d="m384.867 429.002h-42.082c-4.142 0-7.5-3.358-7.5-7.5s3.358-7.5 7.5-7.5h42.082c4.142 0 7.5 3.358 7.5 7.5s-3.358 7.5-7.5 7.5z" fill="#07b27b"/><path d="m386.001 357.85h-125.716c-4.142 0-7.5-3.358-7.5-7.5s3.358-7.5 7.5-7.5h125.716c4.142 0 7.5 3.358 7.5 7.5s-3.358 7.5-7.5 7.5z" fill="#07b27b"/><path d="m386.001 393.426h-125.716c-4.142 0-7.5-3.358-7.5-7.5s3.358-7.5 7.5-7.5h125.716c4.142 0 7.5 3.358 7.5 7.5s-3.358 7.5-7.5 7.5z" fill="#07b27b"/><path d="m375.723 176.152v-7.71c-13.165-1.423-22.772-9.014-22.772-26.805v-33.091c0-19.926 12.098-27.161 27.754-27.161s27.873 7.235 27.873 27.161v33.091c0 17.672-9.726 25.382-23.01 26.805v7.71c0 3.202-2.372 4.863-4.863 4.863s-4.982-1.661-4.982-4.863zm17.435-67.606c0-9.251-4.744-13.64-12.454-13.64-7.828 0-12.335 4.388-12.335 13.64v33.091c0 6.998 2.609 11.149 7.354 12.691v-6.286c0-3.321 2.491-4.744 4.981-4.744 2.491 0 4.863 1.423 4.863 4.744v6.286c4.745-1.542 7.591-5.693 7.591-12.691z" fill="#fff3ef"/><path d="m80.385 400.511c0-.237.119-.712.237-1.186l22.891-74.603c1.067-3.558 5.456-5.219 9.844-5.219 4.507 0 8.896 1.661 9.963 5.219l22.891 74.603c.119.474.237.83.237 1.186 0 3.677-5.575 6.405-9.725 6.405-2.609 0-4.626-.83-5.219-3.084l-4.507-15.775h-27.161l-4.507 15.775c-.593 2.253-2.609 3.084-5.219 3.084-4.151 0-9.725-2.609-9.725-6.405zm43.291-24.551-10.319-36.412-10.319 36.412z" fill="#fff3ef"/></svg>