<svg height="512pt" viewBox="-45 0 512 512.00078" width="512pt" xmlns="http://www.w3.org/2000/svg"><path d="m290.609375 217.152344c8.058594-21.90625 3.28125-47.460938-14.304687-65.046875-17.585938-17.585938-43.140626-22.363281-65.046876-14.308594l-.917968 69.269531zm0 0" fill="#f4d06b"/><path d="m276.757812 152.574219c17.214844 17.5625 21.835938 42.859375 13.851563 64.578125l-70.484375-8.855469 49.375-12.253906c10.925781-18.566407 16.605469-33.492188 7.257812-43.46875zm0 0" fill="#dd9947"/><path d="m302.339844 235.902344c14.671875 20 27.929687 41.121094 39.632812 63.226562-46.476562 4.734375-99.917968 11.953125-136.382812 33.769532l-86.902344-56.648438-23.175781-53.429688c21.820312-36.460937 29.039062-89.902343 33.769531-136.382812 68.511719 36.273438 127.578125 87.476562 173.058594 149.464844zm0 0" fill="#e6e6e6"/><path d="m302.339844 235.902344c14.671875 20 27.929687 41.121094 39.632812 63.226562-46.476562 4.734375-99.917968 11.953125-136.382812 33.769532l-34.496094-34.496094c28.363281-28.363282 104.964844-76.117188 131.222656-62.507813.007813.007813.007813.007813.023438.007813zm0 0" fill="#ccc"/><path d="m255.683594 495.542969-11.113282 11.113281c-7.128906 7.125-18.683593 7.125-25.808593 0l-61.929688-61.929688 36.921875-36.925781 61.929688 61.929688c7.128906 7.128906 7.128906 18.683593 0 25.8125zm0 0" fill="#e6e6e6"/><path d="m233.433594 491.980469-61.925782-61.929688-14.675781 14.675781 61.929688 61.929688c7.125 7.125 18.683593 7.125 25.808593 0l11.117188-11.117188c.605469-.605468 1.136719-1.253906 1.640625-1.917968-7.152344 5.414062-17.371094 4.882812-23.894531-1.640625zm0 0" fill="#ccc"/><path d="m196.925781 404.628906-24.828125 24.828125-15.261718 15.265625c-4.730469 4.730469-12.398438 4.730469-17.128907 0l-38.722656-38.710937 72.980469-41.484375 22.960937 22.972656c4.734375 4.730469 4.734375 12.398438 0 17.128906zm0 0" fill="#152f42"/><path d="m196.925781 404.628906-24.828125 24.828125c-4.730468 4.734375-12.398437 4.734375-17.117187 0l-22.972657-22.96875 41.957032-41.960937 22.960937 22.972656c4.734375 4.730469 4.734375 12.398438 0 17.128906zm0 0" fill="#24465e"/><path d="m220.128906 208.296875-7.367187 1.1875.601562-2.039063zm0 0" fill="#2c92bf"/><path d="m95.503906 222.820312-88.851562 88.851563c-8.871094 8.871094-8.871094 23.253906 0 32.125l77.964844 77.960937c8.867187 8.871094 23.25 8.871094 32.121093 0l88.851563-88.851562" fill="#74dbad"/><path d="m115.269531 392.414062c-8.867187 8.867188-23.25 8.867188-32.121093 0l-77.960938-77.964843c-.171875-.171875-.335938-.347657-.5-.523438-6.839844 8.90625-6.1875 21.714844 1.964844 29.871094l77.964844 77.960937c8.871093 8.871094 23.25 8.871094 32.121093 0l88.851563-88.851562-15.40625-15.40625zm0 0" fill="#2c967f"/><path d="m39.402344 343.972656c-1.992188 0-3.984375-.761718-5.503906-2.28125-3.039063-3.039062-3.039063-7.964844 0-11.003906l57.226562-57.226562c3.039062-3.039063 7.964844-3.039063 11.003906 0 3.039063 3.039062 3.039063 7.96875 0 11.003906l-57.226562 57.226562c-1.519532 1.519532-3.511719 2.28125-5.5 2.28125zm0 0" fill="#2c967f"/><path d="m59.765625 364.335938c-1.992187 0-3.984375-.761719-5.503906-2.28125-3.039063-3.039063-3.039063-7.964844 0-11.003907l57.226562-57.226562c3.039063-3.039063 7.964844-3.039063 11.003907 0 3.039062 3.039062 3.039062 7.96875 0 11.003906l-57.226563 57.226563c-1.519531 1.519531-3.511719 2.28125-5.5 2.28125zm0 0" fill="#2c967f"/><path d="m80.128906 384.699219c-1.992187 0-3.984375-.761719-5.503906-2.28125-3.039062-3.039063-3.039062-7.964844 0-11.003907l57.226562-57.226562c3.039063-3.039062 7.964844-3.039062 11.003907 0 3.039062 3.039062 3.039062 7.96875 0 11.003906l-57.226563 57.226563c-1.519531 1.519531-3.511718 2.28125-5.5 2.28125zm0 0" fill="#2c967f"/><g fill="#e55c5c"><path d="m222.179688 68.757812c-4.296876 0-7.78125-3.484374-7.78125-7.78125v-53.195312c0-4.296875 3.484374-7.78125 7.78125-7.78125 4.296874 0 7.78125 3.484375 7.78125 7.78125v53.195312c0 4.296876-3.484376 7.78125-7.78125 7.78125zm0 0"/><path d="m414.785156 208.171875h-53.195312c-4.296875 0-7.78125-3.484375-7.78125-7.78125 0-4.300781 3.484375-7.785156 7.78125-7.785156h53.195312c4.296875 0 7.78125 3.484375 7.78125 7.785156 0 4.296875-3.480468 7.78125-7.78125 7.78125zm0 0"/><path d="m350.980469 154.820312c-3.050781 0-5.949219-1.808593-7.191407-4.804687-1.644531-3.96875.242188-8.523437 4.210938-10.167969l49.144531-20.355468c3.972657-1.644532 8.523438.242187 10.167969 4.210937 1.644531 3.972656-.238281 8.523437-4.210938 10.167969l-49.144531 20.355468c-.972656.40625-1.980469.59375-2.976562.59375zm0 0"/><path d="m320.757812 109.589844c-1.992187 0-3.984374-.757813-5.503906-2.277344-3.039062-3.039062-3.039062-7.96875 0-11.003906l37.617188-37.613282c3.039062-3.039062 7.964844-3.039062 11.003906 0 3.039062 3.039063 3.039062 7.964844 0 11.003907l-37.617188 37.613281c-1.515624 1.519531-3.507812 2.277344-5.5 2.277344zm0 0"/><path d="m275.527344 79.371094c-.996094 0-2-.191406-2.976563-.59375-3.96875-1.644532-5.855469-6.195313-4.210937-10.167969l20.355468-49.144531c1.644532-3.972656 6.195313-5.855469 10.167969-4.210938 3.972657 1.644532 5.855469 6.195313 4.210938 10.167969l-20.355469 49.144531c-1.242188 2.996094-4.140625 4.804688-7.191406 4.804688zm0 0"/></g></svg>