<svg id="Capa_1" enable-background="new 0 0 512 512" height="512" viewBox="0 0 512 512" width="512" xmlns="http://www.w3.org/2000/svg"><path d="m189.398 393.366h133.203v77.008h-133.203z" fill="#786e79"/><path d="m189.398 393.366v19.72h103.077c5.747 0 10.407 4.659 10.407 10.406v46.882h19.72v-77.008z" fill="#695e66"/><path d="m350.065 501.594h-188.13c-5.523 0-10-4.477-10-10v-11.22c0-5.523 4.477-10 10-10h188.13c5.523 0 10 4.477 10 10v11.22c0 5.522-4.477 10-10 10z" fill="#786e79"/><path d="m350.065 470.374h-15.964v31.219h15.964c5.523 0 10-4.477 10-10v-11.219c0-5.523-4.477-10-10-10z" fill="#695e66"/><path d="m502 393.366h-492c-5.523 0-10-4.477-10-10v-362.959c0-5.523 4.477-10 10-10h492c5.523 0 10 4.477 10 10v362.959c0 5.523-4.477 10-10 10z" fill="#786e79"/><path d="m502 10.406h-9.72v382.959h9.72c5.523 0 10-4.477 10-10v-362.959c0-5.522-4.477-10-10-10z" fill="#695e66"/><path d="m31.22 352.146v-300.52c0-5.523 4.477-10 10-10h429.56c5.523 0 10 4.477 10 10v300.52c0 5.523-4.477 10-10 10h-429.56c-5.523 0-10-4.477-10-10z" fill="#97e4f9"/><path d="m480.781 352.148v-300.523c-.001-5.522-4.478-9.999-10-9.999h-9.23v290.989c0 5.689-4.612 10.302-10.302 10.302h-420.03v9.231c.001 5.522 4.478 9.999 10 9.999h429.561c5.523-.001 10-4.477 10.001-9.999z" fill="#62d8f9"/><path d="m152.45 152.417c3.715 2.097 8.43.785 10.526-2.931 11.668-20.673 29.7-36.506 50.825-45.615-7.998 10.368-14.73 23.752-19.588 39.545-1.256 4.078 1.034 8.402 5.113 9.657 4.072 1.253 8.402-1.033 9.656-5.113 8.652-28.119 23.256-47.032 39.293-51.69v49.418c0 4.267 3.459 7.726 7.726 7.726s7.726-3.459 7.726-7.726v-49.418c16.037 4.658 30.641 23.572 39.293 51.69 1.021 3.321 4.078 5.456 7.381 5.456.753 0 1.518-.111 2.275-.344 4.078-1.255 6.368-5.578 5.113-9.657-4.859-15.794-11.59-29.177-19.588-39.545 21.125 9.109 39.157 24.943 50.825 45.615 1.42 2.516 4.038 3.93 6.735 3.93 1.287 0 2.591-.322 3.791-.999 3.716-2.097 5.028-6.81 2.931-10.526-21.659-38.369-62.46-62.205-106.483-62.205s-84.824 23.836-106.481 62.206c-2.097 3.716-.786 8.428 2.931 10.526z" fill="#0acefa"/><path d="m359.55 251.353c-3.716-2.098-8.431-.786-10.526 2.931-11.668 20.673-29.7 36.506-50.825 45.615 7.999-10.368 14.73-23.752 19.588-39.545 1.256-4.078-1.034-8.402-5.113-9.657-4.071-1.255-8.401 1.033-9.656 5.113-8.652 28.119-23.256 47.032-39.293 51.69v-49.418c0-4.267-3.459-7.726-7.726-7.726s-7.726 3.459-7.726 7.726v49.418c-16.037-4.658-30.641-23.572-39.293-51.69-1.255-4.078-5.58-6.367-9.656-5.113-4.078 1.255-6.368 5.578-5.113 9.657 4.859 15.794 11.59 29.177 19.588 39.545-21.125-9.109-39.157-24.943-50.825-45.615-2.098-3.717-6.81-5.028-10.526-2.931s-5.028 6.81-2.931 10.526c21.657 38.37 62.458 62.206 106.481 62.206s84.824-23.836 106.481-62.206c2.099-3.717.788-8.429-2.929-10.526z" fill="#0acefa"/><path d="m65.561 116.994c-1.977 0-3.955-.755-5.464-2.263-3.017-3.017-3.017-7.909 0-10.927l33.301-33.301c3.018-3.017 7.909-3.017 10.928 0 3.017 3.017 3.017 7.909 0 10.927l-33.301 33.301c-1.509 1.509-3.487 2.263-5.464 2.263z" fill="#c7eefb"/><path d="m57.235 89.938c-1.978 0-3.955-.754-5.464-2.263-3.017-3.018-3.017-7.909.001-10.927l14.569-14.569c3.017-3.018 7.909-3.018 10.927 0 3.017 3.018 3.017 7.909-.001 10.927l-14.569 14.569c-1.508 1.508-3.486 2.263-5.463 2.263z" fill="#c7eefb"/><path d="m391.691 258.081h-271.382c-5.523 0-10-4.477-10-10v-92.39c0-5.523 4.477-10 10-10h271.382c5.523 0 10 4.477 10 10v92.39c0 5.523-4.477 10-10 10z" fill="#fb636f"/><g fill="#e3dfe2"><path d="m185.235 165.022c-4.268 0-7.726 3.459-7.726 7.726v23.287l-12.322-26.54c-1.526-3.287-5.128-5.072-8.674-4.291-3.54.782-6.06 3.92-6.06 7.545v58.276c0 4.267 3.459 7.726 7.726 7.726s7.726-3.459 7.726-7.726v-23.287l12.322 26.54c1.287 2.771 4.049 4.474 7.005 4.474.552-.001 1.112-.06 1.669-.183 3.54-.782 6.06-3.92 6.06-7.545v-58.276c.001-4.267-3.458-7.726-7.726-7.726z"/><path d="m299.707 165.022c-4.268 0-7.726 3.459-7.726 7.726v29.182l-2.215-3.877c-1.375-2.407-3.936-3.893-6.708-3.893s-5.333 1.486-6.708 3.893l-2.216 3.878v-29.183c0-4.267-3.459-7.726-7.726-7.726s-7.726 3.459-7.726 7.726v58.276c0 3.504 2.357 6.568 5.743 7.467 3.382.9 6.953-.592 8.691-3.634l9.943-17.398 9.942 17.398c1.399 2.449 3.985 3.894 6.707 3.893.659 0 1.325-.085 1.984-.26 3.386-.899 5.743-3.964 5.743-7.467v-58.276c-.001-4.266-3.46-7.725-7.728-7.725z"/><path d="m239.349 180.474c4.268 0 7.726-3.459 7.726-7.726s-3.459-7.726-7.726-7.726h-27.056c-4.268 0-7.726 3.459-7.726 7.726v58.276c0 4.267 3.459 7.726 7.726 7.726h27.056c4.268 0 7.726-3.459 7.726-7.726s-3.459-7.726-7.726-7.726h-19.33v-13.685h8.924c4.268 0 7.726-3.459 7.726-7.726s-3.459-7.726-7.726-7.726h-8.924v-13.686h19.33z"/><path d="m353.821 194.16h-19.33v-13.686h19.33c4.268 0 7.726-3.459 7.726-7.726s-3.459-7.726-7.726-7.726h-27.056c-4.268 0-7.726 3.459-7.726 7.726v29.138c0 4.267 3.459 7.726 7.726 7.726h19.33v13.685h-19.33c-4.268 0-7.726 3.459-7.726 7.726s3.459 7.726 7.726 7.726h27.056c4.268 0 7.726-3.459 7.726-7.726v-29.138c0-4.266-3.458-7.725-7.726-7.725z"/></g></svg>