<?xml version="1.0" encoding="iso-8859-1"?>
<!-- Generator: Adobe Illustrator 21.0.0, SVG Export Plug-In . SVG Version: 6.00 Build 0)  -->
<svg xmlns="http://www.w3.org/2000/svg" xmlns:xlink="http://www.w3.org/1999/xlink" version="1.1" id="Capa_1" x="0px" y="0px" viewBox="0 0 512 512" style="enable-background:new 0 0 512 512;" xml:space="preserve" width="512" height="512">
<g>
	<g>
		<ellipse style="fill:#FFD659;" cx="98.481" cy="337.899" rx="56.624" ry="56.66"/>
		<path style="fill:#FFD659;" d="M154.202,512H42.761C25.772,512,12,498.228,12,481.239v-0.199    c0-47.762,38.719-86.481,86.481-86.481h0c47.762,0,86.481,38.719,86.481,86.481v0.199C184.962,498.228,171.19,512,154.202,512z"/>
		<path style="fill:#FFBD54;" d="M98.481,281.239c-5.356,0-10.532,0.76-15.443,2.151c23.763,6.729,41.181,28.576,41.181,54.509    c0,25.933-17.418,47.781-41.181,54.509c4.911,1.391,10.087,2.151,15.443,2.151c31.273,0,56.624-25.368,56.624-56.66    S129.754,281.239,98.481,281.239z"/>
		<path style="fill:#FFBD54;" d="M98.481,394.559L98.481,394.559c-5.274,0-10.429,0.498-15.443,1.403    c40.389,7.29,71.038,42.617,71.038,85.132v0.126c0,16.999-13.772,30.78-30.76,30.78h30.886c16.988,0,30.76-13.781,30.76-30.78    v-0.126C184.962,433.302,146.243,394.559,98.481,394.559z"/>
		<g>
			<ellipse style="fill:#50536E;" cx="83.741" cy="322.418" rx="7.722" ry="7.726"/>
			<ellipse style="fill:#50536E;" cx="113.221" cy="322.418" rx="7.722" ry="7.726"/>
		</g>
	</g>
	<g>
		<ellipse style="fill:#4FC6F5;" cx="413.519" cy="337.899" rx="56.624" ry="56.66"/>
		<path style="fill:#4FC6F5;" d="M469.239,512H357.798c-16.989,0-30.761-13.772-30.761-30.761v-0.199    c0-47.762,38.719-86.481,86.481-86.481h0c47.762,0,86.481,38.719,86.481,86.481v0.199C500,498.228,486.228,512,469.239,512z"/>
		<path style="fill:#3BB3E3;" d="M413.519,281.239c-5.356,0-10.532,0.76-15.443,2.151c23.763,6.729,41.181,28.576,41.181,54.509    c0,25.933-17.418,47.781-41.181,54.509c4.911,1.391,10.087,2.151,15.443,2.151c31.273,0,56.624-25.368,56.624-56.66    S444.792,281.239,413.519,281.239z"/>
		<path style="fill:#3BB3E3;" d="M413.519,394.559L413.519,394.559c-5.274,0-10.429,0.498-15.443,1.403    c40.389,7.29,71.038,42.617,71.038,85.132v0.126c0,16.999-13.772,30.78-30.76,30.78h30.886c16.988,0,30.76-13.781,30.76-30.78    v-0.126C500,433.302,461.281,394.559,413.519,394.559z"/>
		<g>
			<ellipse style="fill:#50536E;" cx="398.779" cy="322.418" rx="7.722" ry="7.726"/>
			<ellipse style="fill:#50536E;" cx="428.259" cy="322.418" rx="7.722" ry="7.726"/>
		</g>
	</g>
	<g>
		<ellipse style="fill:#FF2C5C;" cx="256" cy="337.899" rx="56.624" ry="56.66"/>
		<path style="fill:#FF2C5C;" d="M311.72,512H200.28c-16.989,0-30.761-13.772-30.761-30.761v-0.199    c0-47.762,38.719-86.481,86.481-86.481h0c47.762,0,86.481,38.719,86.481,86.481v0.199C342.481,498.228,328.709,512,311.72,512z"/>
		<path style="fill:#E62753;" d="M256,281.239c-5.356,0-10.532,0.76-15.443,2.151c23.763,6.729,41.181,28.576,41.181,54.509    c0,25.933-17.418,47.781-41.181,54.509c4.911,1.391,10.087,2.151,15.443,2.151c31.273,0,56.624-25.368,56.624-56.66    S287.273,281.239,256,281.239z"/>
		<path style="fill:#E62753;" d="M256,394.559L256,394.559c-5.274,0-10.429,0.498-15.443,1.403    c40.389,7.29,71.038,42.617,71.038,85.132v0.126c0,16.999-13.772,30.78-30.76,30.78h30.886c16.988,0,30.76-13.781,30.76-30.78    v-0.126C342.481,433.302,303.762,394.559,256,394.559z"/>
		<g>
			<path style="fill:#50536E;" d="M120.518,348.395c-0.1,0.055-10.328,5.508-22.037,5.508c-11.724,0-21.91-5.439-22.056-5.519     c-3.625-1.983-8.173-0.66-10.168,2.962c-1.999,3.628-0.677,8.189,2.951,10.188c0.546,0.301,13.56,7.369,29.273,7.369     s28.727-7.068,29.273-7.369c3.628-1.998,4.95-6.56,2.951-10.188C128.707,347.717,124.145,346.396,120.518,348.395z"/>
			<path style="fill:#50536E;" d="M445.743,351.346c-1.998-3.629-6.56-4.95-10.188-2.951c-0.1,0.055-10.328,5.508-22.037,5.508     c-11.724,0-21.91-5.439-22.056-5.519c-3.625-1.983-8.173-0.66-10.168,2.962c-1.999,3.628-0.677,8.189,2.951,10.188     c0.546,0.301,13.56,7.369,29.273,7.369s28.727-7.068,29.273-7.369C446.42,359.535,447.742,354.974,445.743,351.346z"/>
			<path style="fill:#50536E;" d="M278.037,348.395c-0.1,0.055-10.328,5.508-22.037,5.508c-11.724,0-21.91-5.439-22.056-5.519     c-3.625-1.983-8.173-0.66-10.168,2.962c-1.999,3.628-0.677,8.189,2.951,10.188c0.546,0.301,13.56,7.369,29.273,7.369     s28.727-7.068,29.273-7.369c3.628-1.998,4.95-6.56,2.951-10.188C286.226,347.717,281.665,346.396,278.037,348.395z"/>
		</g>
		<g>
			<ellipse style="fill:#50536E;" cx="241.26" cy="322.418" rx="7.722" ry="7.726"/>
			<ellipse style="fill:#50536E;" cx="270.74" cy="322.418" rx="7.722" ry="7.726"/>
		</g>
	</g>
	<path style="fill:#B5FCFF;" d="M292.421,28.595h139.243c24.948,0,45.172,20.22,45.172,45.162v108.763   c0,24.942-20.224,45.162-45.172,45.162h-44.047c-3.433,57.88-42.791,55.207-58.45,51.802c-1.253-0.272-1.217-2.065,0.045-2.291   c30.041-5.383,17.017-49.511,17.017-49.511h-53.808c-24.948,0-45.172-20.22-45.172-45.162V73.756   C247.249,48.814,267.473,28.595,292.421,28.595z"/>
	<g>
		<path style="fill:#71F6FC;" d="M431.663,28.595h-30.886c24.948,0,45.172,20.22,45.172,45.162v108.763    c0,24.942-20.224,45.162-45.172,45.162h30.886c24.948,0,45.172-20.22,45.172-45.162V73.757    C476.835,48.814,456.611,28.595,431.663,28.595z"/>
	</g>
	<g>
		<path style="fill:#50536E;" d="M307.477,100.48h109.131c4.142,0,7.5-3.357,7.5-7.5s-3.358-7.5-7.5-7.5H307.477    c-4.142,0-7.5,3.357-7.5,7.5S303.334,100.48,307.477,100.48z"/>
		<path style="fill:#50536E;" d="M416.607,116.387H307.477c-4.142,0-7.5,3.357-7.5,7.5s3.358,7.5,7.5,7.5h109.131    c4.142,0,7.5-3.357,7.5-7.5S420.75,116.387,416.607,116.387z"/>
		<path style="fill:#50536E;" d="M416.607,147.292H307.477c-4.142,0-7.5,3.357-7.5,7.5s3.358,7.5,7.5,7.5h109.131    c4.142,0,7.5-3.357,7.5-7.5S420.75,147.292,416.607,147.292z"/>
	</g>
	<path style="fill:#B5FCFF;" d="M219.579,0H80.337C55.389,0,35.165,20.22,35.165,45.162v108.763   c0,24.942,20.224,45.162,45.172,45.162h44.047c3.433,57.88,42.791,55.207,58.45,51.802c1.253-0.272,1.217-2.065-0.045-2.291   c-30.041-5.383-17.017-49.511-17.017-49.511h53.808c24.948,0,45.172-20.22,45.172-45.162V45.162C264.751,20.22,244.527,0,219.579,0   z"/>
	<g>
		<path style="fill:#71F6FC;" d="M219.579,0h-30.886c24.948,0,45.172,20.22,45.172,45.162v108.763    c0,24.942-20.224,45.162-45.172,45.162h30.886c24.948,0,45.172-20.22,45.172-45.162V45.162C264.751,20.22,244.527,0,219.579,0z"/>
	</g>
	<path style="fill:#FF2C5C;" d="M213.789,84.371c0,22.066-17.506,48.056-60.733,70.935c-1.929,1.021-4.267,1.021-6.196,0   c-43.227-22.879-60.733-48.87-60.733-70.935c0-19.624,13.022-36.468,31.916-36.468c14.05,0,23.499,7.215,28.272,12.078   c1.979,2.017,5.309,2.017,7.288,0c4.773-4.863,14.221-12.078,28.272-12.078C200.767,47.903,213.789,64.748,213.789,84.371z"/>
	<g>
		<path style="fill:#E62753;" d="M181.873,47.903c-6.489,0-11.983,1.547-16.502,3.682c10.802,6.009,17.531,18.679,17.531,32.786    c0,19.829-14.151,42.827-48.388,63.89c3.861,2.375,7.964,4.727,12.345,7.046c1.929,1.021,4.267,1.021,6.196,0    c43.227-22.879,60.733-48.87,60.733-70.935C213.789,64.747,200.768,47.903,181.873,47.903z"/>
	</g>
</g>















</svg>
