<svg height="511pt" viewBox="-1 0 511 511.99966" width="511pt" xmlns="http://www.w3.org/2000/svg"><path d="m.5 474.101562c0-20.878906 16.984375-37.867187 37.867188-37.867187 4.140624 0 7.5 3.359375 7.5 7.5 0 4.144531-3.359376 7.5-7.5 7.5-12.609376 0-22.867188 10.257813-22.867188 22.867187 0 20.363282 24.90625 30.539063 39.171875 16.03125 10.824219-10.992187 1.121094-22.570312 16.570313-38.015624 15.320312-15.324219 27.34375-5.871094 37.984374-16.515626 10.777344-10.777343 1.027344-22.496093 16.511719-37.980468 2.929688-2.929688 7.675781-2.929688 10.605469 0 2.929688 2.925781 2.929688 7.675781 0 10.605468-10.777344 10.777344-1.023438 22.496094-16.511719 37.980469-15.320312 15.320313-27.339843 5.871094-37.984375 16.515625-10.777344 10.777344-1.027344 22.496094-16.511718 37.984375-24.164063 24.164063-64.835938 6.878907-64.835938-26.605469zm0 0" fill="#ffe082"/><path d="m165.324219 437.207031-68.296875-68.296875c-3.53125-3.53125-3.757813-9.183594-.519532-12.984375l127.179688-149.398437c3.625-4.257813 10.113281-4.519532 14.066406-.5625l90.515625 90.511718c3.957031 3.957032 3.695313 10.445313-.5625 14.070313l-149.398437 127.183594c-3.800782 3.234375-9.453125 3.007812-12.984375-.523438zm0 0" fill="#42a5f5"/><path d="m223.6875 206.53125-2.46875 2.894531 55.425781 55.425781c10.222657 10.222657 9.550781 26.988282-1.457031 36.359376l-132.804688 113.054687 22.941407 22.941406c3.53125 3.53125 9.183593 3.757813 12.988281.523438l149.394531-127.183594c4.257813-3.625 4.519531-10.113281.5625-14.066406l-90.511719-90.515625c-3.957031-3.957032-10.445312-3.695313-14.070312.566406zm0 0" fill="#1976d2"/><path d="m126.3125 320.910156 35.089844-41.214844c13.886718 41.992188 37.496094 80.464844 69.679687 112.648438.082031.082031.167969.164062.253907.246094l-36.21875 30.832031c-29.511719-30.113281-52.671876-64.824219-68.804688-102.511719zm116.765625-109.621094-5.320313-5.324218c-3.957031-3.957032-10.445312-3.695313-14.070312.566406l-24.835938 29.171875c9.066407 46.339844 31.640626 88.953125 65.777344 123.089844.984375.984375 1.988282 1.945312 2.984375 2.910156l36.34375-30.933594c-33.097656-30.472656-55.480469-72.394531-60.878906-119.480469zm0 0" fill="#ec407a"/><path d="m195.117188 423.421875 36.214843-30.832031c-.082031-.082032-.167969-.164063-.25-.246094-9.71875-9.71875-18.648437-20.011719-26.769531-30.800781l-36.164062 30.785156c8.292968 10.820313 17.28125 21.207031 26.96875 31.09375zm0 0" fill="#c2185b"/><path d="m276.757812 299.738281c-.5.507813-1.019531 1-1.570312 1.472657l-34.660156 29.503906c7.242187 9.867187 15.285156 19.257812 24.101562 28.078125.984375.984375 1.988282 1.945312 2.984375 2.910156l18.941407-16.121094 17.402343-14.8125c-10.132812-9.328125-19.257812-19.734375-27.199219-31.03125zm0 0" fill="#c2185b"/><path d="m299.585938 99.949219c0 7.855469-6.371094 14.226562-14.226563 14.226562-7.859375 0-14.230469-6.371093-14.230469-14.226562 0-7.859375 6.371094-14.230469 14.230469-14.230469 7.855469 0 14.226563 6.371094 14.226563 14.230469zm0 0" fill="#42a5f5"/><path d="m368.109375 74.355469c0 7.859375-6.371094 14.230469-14.230469 14.230469-7.855468 0-14.226562-6.371094-14.226562-14.230469 0-7.855469 6.371094-14.226563 14.226562-14.226563 7.859375 0 14.230469 6.371094 14.230469 14.226563zm0 0" fill="#42a5f5"/><path d="m251.402344 167.902344v-17.253906c0-1.757813 1.425781-3.183594 3.183594-3.183594h33.574218c1.757813 0 3.183594 1.425781 3.183594 3.183594v17.253906c0 1.757812-1.425781 3.183594-3.183594 3.183594h-33.574218c-1.757813 0-3.183594-1.425782-3.183594-3.183594zm0 0" fill="#ffa000"/><path d="m305.582031 37.976562-12.203125 12.203126c-1.242187 1.242187-3.257812 1.242187-4.5 0l-23.742187-23.742188c-1.242188-1.242188-1.242188-3.257812 0-4.5l12.203125-12.203125c1.242187-1.242187 3.253906-1.242187 4.5 0l23.742187 23.742187c1.242188 1.246094 1.242188 3.261719 0 4.5zm0 0" fill="#ffa000"/><path d="m385.195312 265.261719c0 7.859375-6.371093 14.230469-14.226562 14.230469-7.859375 0-14.230469-6.371094-14.230469-14.230469 0-7.855469 6.371094-14.226563 14.230469-14.226563 7.855469 0 14.226562 6.371094 14.226562 14.226563zm0 0" fill="#42a5f5"/><path d="m479.726562 180.648438c0 7.859374-6.371093 14.226562-14.226562 14.226562-7.859375 0-14.230469-6.367188-14.230469-14.226562 0-7.859376 6.371094-14.230469 14.230469-14.230469 7.855469 0 14.226562 6.371093 14.226562 14.230469zm0 0" fill="#42a5f5"/><path d="m414.738281 262.261719h17.257813c1.757812 0 3.179687-1.421875 3.179687-3.179688v-33.578125c0-1.757812-1.421875-3.179687-3.179687-3.179687h-17.257813c-1.757812 0-3.179687 1.421875-3.179687 3.179687v33.578125c0 1.757813 1.421875 3.179688 3.179687 3.179688zm0 0" fill="#ffa000"/><path d="m462.402344 263.996094 12.199218 12.203125c1.242188 1.242187 3.257813 1.242187 4.5 0l23.742188-23.742188c1.242188-1.242187 1.242188-3.257812 0-4.5l-12.199219-12.203125c-1.246093-1.242187-3.257812-1.242187-4.5 0l-23.742187 23.742188c-1.242188 1.246094-1.242188 3.257812 0 4.5zm0 0" fill="#ffa000"/><g fill="#ef5350"><path d="m509.828125 54.40625-13.8125-50.738281c-1-3.683594-5.613281-4.910157-8.3125-2.207031l-14.03125 14.027343c-4.324219 4.324219-5.996094 10.636719-4.375 16.535157l13.546875 49.367187c1.621094 5.898437-.050781 12.210937-4.375 16.535156l26.984375-26.988281c4.324219-4.320312 5.996094-10.632812 4.375-16.53125zm0 0"/><path d="m401.246094 162.988281-13.546875-49.367187c-1.621094-5.898438.050781-12.210938 4.375-16.535156l26.984375-26.984376c-4.324219 4.324219-5.992188 10.636719-4.375 16.535157l13.550781 49.367187c1.617187 5.898438-.054687 12.210938-4.378906 16.535156l-26.984375 26.984376c4.324218-4.324219 5.996094-10.636719 4.375-16.535157zm0 0"/><path d="m346.632812 217.601562-13.546874-49.367187c-1.621094-5.898437.050781-12.210937 4.375-16.535156l-26.984376 26.984375c-4.324218 4.324218-5.996093 10.636718-4.375 16.535156l13.765626 50.773438c1 3.6875 5.613281 4.917968 8.316406 2.214843l14.074218-14.070312c4.324219-4.324219 5.996094-10.636719 4.375-16.535157zm0 0"/></g><path d="m482.84375 81.390625-1.546875-5.644531-43.722656-12c-5.898438-1.617188-12.210938.050781-16.535157 4.378906l-1.980468 1.976562c-4.324219 4.324219-5.992188 10.636719-4.375 16.535157l1.546875 5.644531 43.726562 12c5.894531 1.617188 12.207031-.054688 16.53125-4.378906l1.980469-1.976563c4.324219-4.324219 5.996094-10.636719 4.375-16.535156zm0 0" fill="#ffca28"/><path d="m401.246094 162.988281-1.546875-5.644531-43.722657-12c-5.898437-1.617188-12.210937.054688-16.535156 4.378906l-1.976562 1.976563c-4.324219 4.324219-5.996094 10.636719-4.378906 16.535156l1.550781 5.644531 43.722656 12c5.894531 1.621094 12.207031-.050781 16.53125-4.375l1.980469-1.980468c4.324218-4.328126 5.996094-10.640626 4.375-16.535157zm0 0" fill="#ffca28"/></svg>