<?xml version="1.0" encoding="iso-8859-1"?>
<!-- Generator: Adobe Illustrator 19.0.0, SVG Export Plug-In . SVG Version: 6.00 Build 0)  -->
<svg version="1.1" id="Layer_1" xmlns="http://www.w3.org/2000/svg" xmlns:xlink="http://www.w3.org/1999/xlink" x="0px" y="0px"
	 viewBox="0 0 511.999 511.999" style="enable-background:new 0 0 511.999 511.999;" xml:space="preserve">
<path style="fill:#EFF2FA;" d="M256.005,511.965c264.786-114.743,255.96-458.972,255.96-458.972
	C353.09,44.166,256.005,0.034,256,0.034c-0.006,0-97.09,44.132-255.965,52.958c0,0-8.826,344.229,255.96,458.972"/>
<path style="fill:#D7DEED;" d="M255.966,0.05C255.226,0.383,158.307,44.2,0.034,52.993c0,0-8.825,344.205,255.931,458.959V0.05z"/>
<path style="fill:#C3E678;" d="M256,38.129c30.758,11.744,108.583,37.599,219.602,47.611
	c-5.411,81.695-37.114,298.42-219.612,387.379C164.087,428.431,99.22,347.052,63.058,230.985
	C44.806,172.405,38.527,118.339,36.391,85.74C147.41,75.728,225.241,49.873,256,38.129"/>
<path style="fill:#FFFFFF;" d="M217.039,347.159l-82.177-82.177c-3.447-3.447-3.447-9.036,0-12.483l12.479-12.479
	c3.447-3.447,9.036-3.447,12.483,0l69.698,69.698l148.601-148.601c3.447-3.447,9.036-3.447,12.483,0l12.479,12.479
	c3.447,3.447,3.447,9.036,0,12.483l-161.082,161.08C235.11,354.052,223.932,354.052,217.039,347.159z"/>
<path style="fill:#A5D76E;" d="M256,56.974c31.721,11.606,102.639,34.047,200.604,44.623
	c-3.857,40.283-14.012,104.179-40.698,168.328c-35.296,84.84-89.076,146.511-159.926,183.432
	c-83.252-43.244-142.467-119.777-176.067-227.623C65.207,178.538,58.44,134.375,55.364,101.6
	C153.358,91.025,224.275,68.58,256,56.974 M256,38.129C225.241,49.873,147.41,75.728,36.391,85.74
	c2.136,32.599,8.415,86.664,26.667,145.245C99.22,347.052,164.087,428.431,255.991,473.119
	C438.489,384.16,470.192,167.435,475.602,85.74C364.583,75.728,286.757,49.873,256,38.129L256,38.129z"/>
<g>
</g>
<g>
</g>
<g>
</g>
<g>
</g>
<g>
</g>
<g>
</g>
<g>
</g>
<g>
</g>
<g>
</g>
<g>
</g>
<g>
</g>
<g>
</g>
<g>
</g>
<g>
</g>
<g>
</g>
</svg>
