<svg id="Capa_1" enable-background="new 0 0 512 512" height="512" viewBox="0 0 512 512" width="512" xmlns="http://www.w3.org/2000/svg"><path d="m500.069 40.813h-77.151v67.933h77.151c4.617 0 8.36-3.743 8.36-8.361v-51.212c.001-4.617-3.742-8.36-8.36-8.36z" fill="#dfebfa"/><path d="m500.069 74.779h-77.151v33.966h77.151c4.617 0 8.36-3.743 8.36-8.361v-33.966c.001 4.617-3.742 8.361-8.36 8.361z" fill="#b1dbfc"/><path d="m500.069 222.034h-154.364v67.933h154.364c4.617 0 8.36-3.743 8.36-8.361v-51.211c.001-4.618-3.742-8.361-8.36-8.361z" fill="#dfebfa"/><path d="m500.069 256h-154.364v33.966h154.364c4.617 0 8.36-3.743 8.36-8.361v-33.966c.001 4.618-3.742 8.361-8.36 8.361z" fill="#b1dbfc"/><path d="m500.069 403.255h-234.696v67.932h234.697c4.617 0 8.36-3.743 8.36-8.36v-51.212c0-4.617-3.743-8.36-8.361-8.36z" fill="#dfebfa"/><path d="m500.069 437.221h-234.696v33.966h234.697c4.617 0 8.36-3.743 8.36-8.36v-33.966c0 4.617-3.743 8.36-8.361 8.36z" fill="#b1dbfc"/><circle cx="78.349" cy="74.779" fill="#fee55a" r="74.779"/><path d="m31.808 74.779c0-36.471 26.114-66.826 60.66-73.43-4.574-.874-9.29-1.349-14.119-1.349-41.299 0-74.779 33.48-74.779 74.779s33.48 74.779 74.779 74.779c4.829 0 9.545-.475 14.119-1.349-34.546-6.604-60.66-36.96-60.66-73.43z" fill="#ffd301"/><circle cx="78.349" cy="256" fill="#43cb8e" r="74.779"/><path d="m31.808 256c0-36.47 26.114-66.825 60.66-73.43-4.574-.874-9.29-1.349-14.119-1.349-41.299 0-74.779 33.48-74.779 74.779s33.48 74.779 74.779 74.779c4.829 0 9.545-.475 14.119-1.349-34.546-6.604-60.66-36.96-60.66-73.43z" fill="#00ba66"/><circle cx="50.112" cy="243.592" fill="#00a855" r="13.911"/><circle cx="106.586" cy="243.592" fill="#00a855" r="13.911"/><circle cx="78.349" cy="437.221" fill="#ff656f" r="74.779"/><path d="m31.808 437.221c0-36.471 26.114-66.826 60.66-73.43-4.574-.874-9.29-1.349-14.119-1.349-41.299 0-74.779 33.48-74.779 74.779 0 41.299 33.48 74.779 74.779 74.779 4.829 0 9.545-.475 14.119-1.349-34.546-6.604-60.66-36.959-60.66-73.43z" fill="#ff4756"/><path d="m119.471 87.621h-82.244c-3.162 0-5.33 3.223-4.106 6.138 7.419 17.661 24.87 30.067 45.227 30.067s37.809-12.406 45.227-30.067c1.226-2.915-.942-6.138-4.104-6.138z" fill="#dfebfa"/><path d="m61.359 93.759c-1.225-2.915.944-6.138 4.106-6.138h-28.238c-3.162 0-5.33 3.223-4.105 6.138 7.419 17.661 24.87 30.067 45.227 30.067 4.909 0 9.647-.728 14.119-2.071-14.07-4.225-25.479-14.594-31.109-27.996z" fill="#b1dbfc"/><path d="m65.555 64.865c-4.267 0-7.726-3.459-7.726-7.726 0-3.525-2.868-6.393-6.393-6.393s-6.393 2.868-6.393 6.393c0 4.267-3.459 7.726-7.726 7.726s-7.726-3.459-7.726-7.726c0-12.046 9.8-21.846 21.846-21.846s21.846 9.8 21.846 21.846c-.001 4.266-3.461 7.726-7.728 7.726z" fill="#ffc20c"/><path d="m119.382 64.865c-4.267 0-7.726-3.459-7.726-7.726 0-3.525-2.868-6.393-6.393-6.393s-6.393 2.868-6.393 6.393c0 4.267-3.459 7.726-7.726 7.726s-7.726-3.459-7.726-7.726c0-12.046 9.8-21.846 21.846-21.846s21.846 9.8 21.846 21.846c-.002 4.266-3.461 7.726-7.728 7.726z" fill="#ffc20c"/><g fill="#fc2d39"><path d="m65.555 434.367c-4.267 0-7.726-3.459-7.726-7.726 0-3.525-2.868-6.393-6.393-6.393s-6.393 2.868-6.393 6.393c0 4.267-3.459 7.726-7.726 7.726s-7.726-3.459-7.726-7.726c0-12.046 9.8-21.846 21.846-21.846s21.846 9.8 21.846 21.846c-.001 4.266-3.461 7.726-7.728 7.726z"/><path d="m119.382 434.367c-4.267 0-7.726-3.459-7.726-7.726 0-3.525-2.868-6.393-6.393-6.393s-6.393 2.868-6.393 6.393c0 4.267-3.459 7.726-7.726 7.726s-7.726-3.459-7.726-7.726c0-12.046 9.8-21.846 21.846-21.846s21.846 9.8 21.846 21.846c-.002 4.266-3.461 7.726-7.728 7.726z"/><path d="m108.103 476.594c-16.248-16.879-43.203-16.937-59.508 0-2.96 3.073-7.851 3.167-10.925.208s-3.167-7.851-.208-10.925c22.325-23.191 59.373-23.269 81.773 0 2.959 3.074 2.866 7.966-.208 10.925-3.074 2.958-7.965 2.866-10.924-.208z"/></g><path d="m113.516 293.813h-70.334c-4.267 0-7.726-3.459-7.726-7.726s3.459-7.726 7.726-7.726h70.333c4.267 0 7.726 3.459 7.726 7.726.001 4.267-3.458 7.726-7.725 7.726z" fill="#00a855"/><path d="m267.433 403.255h-71.972c-4.618 0-8.361 3.743-8.361 8.361v51.211c0 4.617 3.743 8.361 8.361 8.361h71.972z" fill="#ff656f"/><path d="m187.101 428.861v33.966c0 4.617 3.743 8.36 8.361 8.36h71.972v-33.966h-71.972c-4.618 0-8.361-3.743-8.361-8.36z" fill="#ff4756"/><path d="m424.978 40.813h-229.517c-4.618 0-8.361 3.743-8.361 8.361v51.211c0 4.617 3.743 8.361 8.361 8.361h229.517z" fill="#fee55a"/><path d="m187.101 66.418v33.966c0 4.617 3.743 8.361 8.361 8.361h229.517v-33.966h-229.518c-4.617 0-8.36-3.744-8.36-8.361z" fill="#ffd301"/><path d="m347.765 222.034h-152.304c-4.618 0-8.361 3.743-8.361 8.361v51.211c0 4.617 3.743 8.361 8.361 8.361h152.304z" fill="#43cb8e"/><path d="m187.101 247.639v33.966c0 4.617 3.743 8.361 8.361 8.361h152.304v-33.966h-152.305c-4.617 0-8.36-3.743-8.36-8.361z" fill="#00ba66"/></svg>