<?xml version="1.0" encoding="UTF-8" standalone="no"?>
<!DOCTYPE svg PUBLIC "-//W3C//DTD SVG 1.1//EN" "http://www.w3.org/Graphics/SVG/1.1/DTD/svg11.dtd">
<svg width="100%" height="100%" viewBox="0 0 326 63" version="1.1" xmlns="http://www.w3.org/2000/svg" xmlns:xlink="http://www.w3.org/1999/xlink" xml:space="preserve" xmlns:serif="http://www.serif.com/" style="fill-rule:evenodd;clip-rule:evenodd;stroke-linejoin:round;stroke-miterlimit:2;">
    <g id="Artboard1" transform="matrix(0.813361,0,0,0.156338,0,0)">
        <rect x="0" y="0" width="400" height="400" style="fill:none;"/>
        <g transform="matrix(1.22947,0,0,6.3964,-94.4557,-1174.46)">
            <g transform="matrix(83.3333,0,0,83.3333,78.3439,243.853)">
                <path d="M0.236,0.003L0.059,-0.592C0.054,-0.607 0.049,-0.619 0.044,-0.626C0.039,-0.632 0.029,-0.639 0.016,-0.645L0.004,-0.65L0.004,-0.66L0.269,-0.66L0.269,-0.65L0.248,-0.642C0.233,-0.636 0.222,-0.629 0.217,-0.62C0.212,-0.611 0.211,-0.599 0.216,-0.584L0.325,-0.168L0.443,-0.517L0.42,-0.588C0.415,-0.602 0.411,-0.613 0.407,-0.62C0.403,-0.627 0.396,-0.633 0.387,-0.638L0.365,-0.65L0.365,-0.66L0.616,-0.66L0.616,-0.65L0.585,-0.638C0.572,-0.633 0.564,-0.627 0.563,-0.618C0.561,-0.608 0.562,-0.597 0.567,-0.583L0.694,-0.158L0.814,-0.575C0.819,-0.591 0.82,-0.605 0.819,-0.617C0.818,-0.629 0.809,-0.638 0.794,-0.643L0.773,-0.65L0.773,-0.66L0.912,-0.66L0.912,-0.65L0.886,-0.64C0.873,-0.635 0.863,-0.628 0.858,-0.618C0.853,-0.608 0.848,-0.596 0.844,-0.581L0.678,0.003L0.609,0.003L0.459,-0.467L0.305,0.003L0.236,0.003Z" style="fill:white;fill-rule:nonzero;"/>
            </g>
            <g transform="matrix(83.3333,0,0,83.3333,145.427,243.853)">
                <path d="M0.271,-0.496C0.314,-0.496 0.351,-0.487 0.382,-0.47C0.413,-0.452 0.436,-0.428 0.453,-0.398C0.469,-0.367 0.477,-0.333 0.477,-0.294C0.477,-0.287 0.477,-0.279 0.476,-0.272C0.475,-0.264 0.474,-0.257 0.472,-0.251L0.174,-0.251C0.175,-0.179 0.188,-0.127 0.213,-0.096C0.238,-0.064 0.275,-0.048 0.324,-0.048C0.357,-0.048 0.384,-0.053 0.405,-0.064C0.426,-0.075 0.445,-0.09 0.463,-0.111L0.473,-0.102C0.452,-0.065 0.425,-0.037 0.391,-0.016C0.356,0.005 0.315,0.015 0.267,0.015C0.22,0.015 0.178,0.005 0.141,-0.016C0.104,-0.036 0.076,-0.065 0.055,-0.103C0.034,-0.141 0.024,-0.186 0.024,-0.239C0.024,-0.294 0.036,-0.34 0.06,-0.379C0.084,-0.417 0.115,-0.446 0.153,-0.466C0.19,-0.486 0.23,-0.496 0.271,-0.496ZM0.268,-0.476C0.249,-0.476 0.232,-0.47 0.219,-0.459C0.205,-0.447 0.194,-0.426 0.187,-0.397C0.179,-0.367 0.175,-0.325 0.174,-0.271L0.345,-0.271C0.352,-0.344 0.349,-0.396 0.337,-0.428C0.325,-0.46 0.302,-0.476 0.268,-0.476Z" style="fill:white;fill-rule:nonzero;"/>
            </g>
            <g transform="matrix(83.3333,0,0,83.3333,184.677,243.853)">
                <path d="M0.191,0.013L0.022,0L0.022,-0.01L0.032,-0.012C0.058,-0.018 0.071,-0.035 0.071,-0.062L0.071,-0.597C0.071,-0.611 0.069,-0.622 0.065,-0.629C0.06,-0.636 0.051,-0.641 0.038,-0.644L0.024,-0.648L0.024,-0.658L0.202,-0.701L0.214,-0.692L0.21,-0.551L0.21,-0.45C0.232,-0.465 0.256,-0.477 0.282,-0.485C0.308,-0.492 0.334,-0.496 0.361,-0.496C0.399,-0.496 0.433,-0.487 0.462,-0.47C0.491,-0.452 0.515,-0.425 0.532,-0.388C0.549,-0.351 0.557,-0.303 0.557,-0.245C0.557,-0.187 0.548,-0.139 0.529,-0.101C0.509,-0.062 0.484,-0.033 0.453,-0.014C0.421,0.005 0.386,0.015 0.348,0.015C0.323,0.015 0.299,0.012 0.274,0.005C0.249,-0.002 0.226,-0.011 0.207,-0.023L0.191,0.013ZM0.298,-0.019C0.319,-0.019 0.338,-0.026 0.354,-0.039C0.37,-0.052 0.383,-0.075 0.392,-0.108C0.401,-0.14 0.406,-0.184 0.406,-0.241C0.406,-0.298 0.402,-0.341 0.393,-0.372C0.384,-0.403 0.372,-0.424 0.357,-0.436C0.341,-0.448 0.322,-0.454 0.3,-0.454C0.269,-0.454 0.24,-0.445 0.213,-0.428L0.213,-0.044C0.226,-0.036 0.239,-0.03 0.252,-0.026C0.265,-0.021 0.281,-0.019 0.298,-0.019Z" style="fill:white;fill-rule:nonzero;"/>
            </g>
            <g transform="matrix(83.3333,0,0,83.3333,229.261,243.853)">
                <path d="M0.225,0.003L0.071,-0.42C0.064,-0.441 0.049,-0.456 0.027,-0.465L0.01,-0.471L0.01,-0.481L0.255,-0.481L0.255,-0.471L0.24,-0.467C0.214,-0.459 0.205,-0.443 0.214,-0.419L0.307,-0.136L0.39,-0.356L0.371,-0.413C0.366,-0.428 0.362,-0.439 0.357,-0.447C0.352,-0.454 0.345,-0.46 0.337,-0.463L0.32,-0.471L0.32,-0.481L0.527,-0.481L0.527,-0.471L0.513,-0.465C0.503,-0.461 0.497,-0.456 0.495,-0.449C0.493,-0.442 0.494,-0.432 0.499,-0.419L0.591,-0.141L0.686,-0.417C0.695,-0.442 0.69,-0.458 0.671,-0.465L0.649,-0.471L0.649,-0.481L0.769,-0.481L0.769,-0.471L0.745,-0.464C0.734,-0.461 0.725,-0.456 0.721,-0.449C0.716,-0.442 0.711,-0.432 0.707,-0.42L0.563,0.003L0.512,0.003L0.401,-0.324L0.283,0.003L0.225,0.003Z" style="fill:white;fill-rule:nonzero;"/>
            </g>
            <g transform="matrix(83.3333,0,0,83.3333,292.677,243.853)">
                <path d="M0.14,-0.548C0.117,-0.548 0.098,-0.555 0.083,-0.57C0.067,-0.584 0.059,-0.602 0.059,-0.624C0.059,-0.647 0.067,-0.665 0.083,-0.679C0.098,-0.693 0.117,-0.7 0.14,-0.7C0.163,-0.7 0.182,-0.693 0.197,-0.679C0.212,-0.665 0.22,-0.647 0.22,-0.624C0.22,-0.602 0.212,-0.584 0.197,-0.57C0.182,-0.555 0.163,-0.548 0.14,-0.548ZM0.022,0L0.022,-0.01L0.036,-0.014C0.049,-0.018 0.058,-0.024 0.064,-0.032C0.069,-0.04 0.071,-0.051 0.071,-0.064L0.071,-0.377C0.071,-0.391 0.069,-0.402 0.064,-0.409C0.058,-0.416 0.049,-0.42 0.036,-0.423L0.022,-0.426L0.022,-0.436L0.205,-0.495L0.215,-0.485L0.212,-0.343L0.212,-0.063C0.212,-0.05 0.215,-0.039 0.22,-0.031C0.225,-0.023 0.233,-0.017 0.246,-0.013L0.256,-0.01L0.256,0L0.022,0Z" style="fill:white;fill-rule:nonzero;"/>
            </g>
            <g transform="matrix(83.3333,0,0,83.3333,314.344,243.853)">
                <path d="M0.232,0.015C0.193,0.015 0.157,0.006 0.126,-0.012C0.095,-0.029 0.07,-0.056 0.052,-0.094C0.033,-0.13 0.024,-0.178 0.024,-0.236C0.024,-0.295 0.034,-0.343 0.055,-0.382C0.076,-0.42 0.103,-0.448 0.137,-0.468C0.171,-0.487 0.208,-0.496 0.248,-0.496C0.271,-0.496 0.294,-0.494 0.315,-0.489C0.336,-0.484 0.355,-0.477 0.372,-0.468L0.372,-0.598C0.372,-0.612 0.37,-0.622 0.366,-0.629C0.361,-0.636 0.352,-0.64 0.338,-0.643L0.319,-0.647L0.319,-0.657L0.501,-0.701L0.512,-0.692L0.508,-0.552L0.508,-0.063C0.508,-0.05 0.51,-0.039 0.515,-0.031C0.52,-0.022 0.528,-0.016 0.541,-0.013L0.55,-0.01L0.55,0L0.379,0.011L0.37,-0.025C0.352,-0.013 0.332,-0.003 0.309,0.004C0.286,0.011 0.26,0.015 0.232,0.015ZM0.29,-0.022C0.318,-0.022 0.344,-0.03 0.367,-0.047L0.367,-0.444C0.342,-0.46 0.317,-0.468 0.291,-0.468C0.259,-0.468 0.232,-0.45 0.209,-0.413C0.186,-0.376 0.175,-0.317 0.175,-0.238C0.175,-0.159 0.186,-0.103 0.207,-0.071C0.228,-0.038 0.256,-0.022 0.29,-0.022Z" style="fill:white;fill-rule:nonzero;"/>
            </g>
            <g transform="matrix(83.3333,0,0,83.3333,360.511,243.853)">
                <path d="M0.271,-0.496C0.314,-0.496 0.351,-0.487 0.382,-0.47C0.413,-0.452 0.436,-0.428 0.453,-0.398C0.469,-0.367 0.477,-0.333 0.477,-0.294C0.477,-0.287 0.477,-0.279 0.476,-0.272C0.475,-0.264 0.474,-0.257 0.472,-0.251L0.174,-0.251C0.175,-0.179 0.188,-0.127 0.213,-0.096C0.238,-0.064 0.275,-0.048 0.324,-0.048C0.357,-0.048 0.384,-0.053 0.405,-0.064C0.426,-0.075 0.445,-0.09 0.463,-0.111L0.473,-0.102C0.452,-0.065 0.425,-0.037 0.391,-0.016C0.356,0.005 0.315,0.015 0.267,0.015C0.22,0.015 0.178,0.005 0.141,-0.016C0.104,-0.036 0.076,-0.065 0.055,-0.103C0.034,-0.141 0.024,-0.186 0.024,-0.239C0.024,-0.294 0.036,-0.34 0.06,-0.379C0.084,-0.417 0.115,-0.446 0.153,-0.466C0.19,-0.486 0.23,-0.496 0.271,-0.496ZM0.268,-0.476C0.249,-0.476 0.232,-0.47 0.219,-0.459C0.205,-0.447 0.194,-0.426 0.187,-0.397C0.179,-0.367 0.175,-0.325 0.174,-0.271L0.345,-0.271C0.352,-0.344 0.349,-0.396 0.337,-0.428C0.325,-0.46 0.302,-0.476 0.268,-0.476Z" style="fill:white;fill-rule:nonzero;"/>
            </g>
        </g>
    </g>
</svg>
